<?xml version="1.0" encoding="utf-8"?>
<!-- Svg Vector Icons : http://www.onlinewebfonts.com/icon -->
<!DOCTYPE svg PUBLIC "-//W3C//DTD SVG 1.1//EN" "http://www.w3.org/Graphics/SVG/1.1/DTD/svg11.dtd">
<svg version="1.1" xmlns="http://www.w3.org/2000/svg" xmlns:xlink="http://www.w3.org/1999/xlink" x="0px" y="0px" viewBox="0 0 1000 1000" enable-background="new 0 0 1000 1000" xml:space="preserve">
<metadata> Svg Vector Icons : http://www.onlinewebfonts.com/icon </metadata>
<g><path d="M255,193.8C255,92.3,337.3,10,438.8,10s183.8,82.3,183.8,183.8V745c0,67.7-54.8,122.5-122.5,122.5S377.5,812.7,377.5,745V255h61.3v490c0,33.8,27.4,61.3,61.3,61.3c33.8,0,61.3-27.4,61.3-61.3V193.8c0-67.7-54.8-122.5-122.5-122.5s-122.5,54.8-122.5,122.5V745c0,101.5,82.3,183.8,183.8,183.8S683.8,846.5,683.8,745V132.5H745v643.1C729.9,896.4,624.9,990,500,990s-229.9-93.6-245-214.4V193.8z"/></g>
</svg>