<?xml version="1.0" encoding="utf-8"?>
<!-- Svg Vector Icons : http://www.onlinewebfonts.com/icon -->
<!DOCTYPE svg PUBLIC "-//W3C//DTD SVG 1.1//EN" "http://www.w3.org/Graphics/SVG/1.1/DTD/svg11.dtd">
<svg version="1.1" xmlns="http://www.w3.org/2000/svg" xmlns:xlink="http://www.w3.org/1999/xlink" x="0px" y="0px" viewBox="0 0 1000 1000" enable-background="new 0 0 1000 1000" xml:space="preserve">
<metadata> Svg Vector Icons : http://www.onlinewebfonts.com/icon </metadata>
<g><g transform="translate(0.000000,511.000000) scale(0.100000,-0.100000)"><path d="M6179.3,3717.5l-1688.7-532.4H2823.6H1158.9l-69.8-63.3l-72-63.3l-10.9-486.6l-10.9-484.4l-120-39.3c-65.5-21.8-235.6-74.2-377.5-120c-277.1-85.1-375.3-146.2-397.1-246.5c-10.9-48,102.5-432,445.1-1522.9l460.4-1461.8v-724.3c0-816,6.5-853.1,139.6-907.7c43.6-17.5,146.2-32.7,229.1-32.7h152.7l111.3-353.5c61.1-196.4,126.5-403.6,146.2-464.7c19.6-58.9,48-130.9,65.5-154.9c41.5-65.5,146.2-104.7,226.9-87.3c37.1,6.5,818.2,248.7,1732.4,536.7l1664.7,523.6h1649.5c1834.9,0,1776-4.4,1834.9,139.6c26.2,58.9,32.7,181.1,32.7,521.4v442.9l394.9,126.5c410.2,128.7,484.4,170.2,512.7,283.6c10.9,41.4-111.3,458.2-447.3,1525.1l-460.4,1466.2l-4.4,759.3l-6.5,761.5l-72,63.3c-65.4,58.9-82.9,63.3-253.1,63.3h-183.3l-80.7,257.5c-43.6,139.6-111.3,353.5-148.4,473.5c-82.9,270.5-141.8,338.2-281.5,336C7902.9,4252.1,7224.4,4047,6179.3,3717.5z M7909.5,3508.1c45.8-146.2,87.3-277.1,93.8-294.6c8.7-24-168-28.4-988.4-28.4c-547.7,0-992.7,6.5-984,13.1c8.7,10.9,1738.9,565.1,1784.7,573.8C7822.2,3774.3,7865.9,3654.3,7909.5,3508.1z M8551,115.3l-6.5-2635.7l-3538.9-6.5l-3541.1-4.4v2640v2640h3545.5h3545.5L8551,115.3z M1004,900.8c0-394.9-4.4-704.7-8.7-693.8C962.5,287.7,591.6,1489.9,596,1494.2c17.5,15.3,338.2,117.8,373.1,117.8C1004,1614.2,1006.2,1566.2,1004,900.8z M9207.7-620c109.1-349.1,192-639.3,183.3-648c-10.9-8.7-89.4-37.1-178.9-63.3c-87.3-26.2-174.6-52.3-189.8-58.9c-26.2-8.7-30.6,106.9-30.6,704.7c0,392.7,4.4,709.1,8.7,704.7C9004.8,15,9098.6-273.1,9207.7-620z M3962.6-2980.7c-58.9-21.8-1762.9-554.2-1778.2-554.2c-8.7,0-24,21.8-30.5,50.2c-6.6,26.2-45.8,152.7-87.3,283.6l-74.2,233.5l994.9-2.2C3537.1-2969.8,3975.7-2974.2,3962.6-2980.7z"/><path d="M2777.8,1775.7c-473.5-235.6-381.8-940.4,135.3-1056c229.1-50.2,490.9,67.6,606.6,274.9c130.9,237.8,96,486.5-98.2,674.2C3240.4,1845.5,2996,1884.8,2777.8,1775.7z"/><path d="M6192.4,1708.1c-17.5-21.8-211.6-495.3-427.6-1051.6C5548.8,100.1,5361.1-366.9,5348-380c-50.2-50.2-100.4,39.3-294.6,536.7c-109.1,283.6-211.6,530.2-226.9,549.8c-39.3,45.8-117.8,43.6-159.3-2.2c-19.6-21.8-194.2-453.8-390.5-960l-357.8-922.9h-720c-530.2,0-735.3-8.7-774.6-28.4c-72-34.9-139.6-174.6-120-248.7c6.5-30.5,41.5-82.9,76.4-117.8l61.1-63.3h2622.6c2487.3,0,2622.6,2.2,2613.8,39.3c-43.6,157.1-1272,3294.6-1300.4,3316.4C6327.7,1756.1,6233.8,1751.7,6192.4,1708.1z"/></g></g>
</svg>